<svg xmlns="http://www.w3.org/2000/svg" width="24" height="24" viewBox="0 0 24 24">
  <path fill="#FFFFFF" fill-rule="evenodd" d="M10.8854902,7.04623529 L10.8832549,7.0492549 C10.6822745,6.8647451 10.4182745,6.75 10.1250196,6.75 C9.50403922,6.75 9,7.254 9,7.87501961 C9,8.20352941 9.1425098,8.496 9.3667451,8.70152941 L9.3645098,8.70454902 L12.96,12 L9.36447059,15.2962745 L9.36670588,15.2992549 C9.14247059,15.504 8.99996078,15.7965098 8.99996078,16.1250196 C8.99996078,16.7460392 9.50396078,17.2500392 10.1249804,17.2500392 C10.4182353,17.2500392 10.6822353,17.1352941 10.8832157,16.9515686 L10.885451,16.954549 L15.385451,12.8295294 C15.6172157,12.6157647 15.7499608,12.3157647 15.7499608,12.0000392 C15.7499608,11.6843137 15.6172157,11.3842745 15.385451,11.170549 L10.8854902,7.04623529 L10.8854902,7.04623529 Z M12,0 C5.37301961,0 0,5.37301961 0,12 C0,18.6269804 5.37301961,24 12,24 C18.6269804,24 24,18.6269804 24,12 C24,5.37301961 18.6269804,0 12,0 L12,0 Z M12,21.75 C6.624,21.75 2.25,17.376 2.25,12 C2.25,6.624 6.624,2.25 12,2.25 C17.376,2.25 21.75,6.624 21.75,12 C21.75,17.376 17.376,21.75 12,21.75 L12,21.75 Z"/>
</svg>
