<svg xmlns="http://www.w3.org/2000/svg" width="21" height="24" viewBox="0 0 21 24">
  <g fill="#BDC2CC" fill-rule="evenodd">
    <path d="M20.4976471,4.09829412 L10.7767059,0.0552794118 C10.5995441,-0.0184264706 10.4004559,-0.0184264706 10.2232941,0.0552794118 L0.502352941,4.09829412 C0.233573529,4.21008824 0.0584705882,4.47258824 0.0584705882,4.76360294 L0.0584705882,22.5441176 C0.0584705882,22.9420882 0.381088235,23.2647059 0.779058824,23.2647059 L20.2209412,23.2647059 C20.6189118,23.2647059 20.9415294,22.9420882 20.9415294,22.5441176 L20.9415294,4.76370588 C20.9415294,4.47258824 20.7664265,4.21008824 20.4976471,4.09829412 L20.4976471,4.09829412 Z M19.5003529,21.8235294 L1.49964706,21.8235294 L1.49964706,5.24444118 L10.5,1.50108824 L19.5003529,5.24444118 L19.5003529,21.8235294 L19.5003529,21.8235294 Z"/>
    <path d="M6.78794118 9.83386765L3.73398529 12.8878235C3.45254412 13.1692647 3.45254412 13.6255 3.73398529 13.9068382 3.87470588 14.0475588 4.05907353 14.1178676 4.24354412 14.1178676 4.42801471 14.1178676 4.61238235 14.0474559 4.75310294 13.9068382L7.80705882 10.8528824C8.32372059 10.3362206 9.14035294 10.2947353 9.70683824 10.7565294 10.8484559 11.6873235 12.4947941 11.6037353 13.5363529 10.5622794L16.0360735 8.06255882 16.0360735 8.87651471C16.0360735 9.27448529 16.3586912 9.59710294 16.7566618 9.59710294 17.1546324 9.59710294 17.47725 9.27448529 17.47725 8.87651471L17.47725 6.33355882C17.47725 5.93558824 17.1546324 5.61297059 16.7566618 5.61297059L14.2137059 5.61297059C13.8157353 5.61297059 13.4931176 5.93558824 13.4931176 6.33355882 13.4931176 6.73152941 13.8157353 7.05414706 14.2137059 7.05414706L15.0063529 7.05414706 12.5172353 9.54326471C12.0005735 10.0599265 11.1837353 10.1014118 10.6174559 9.63972059 9.47583824 8.70872059 7.8295 8.79220588 6.78794118 9.83386765L6.78794118 9.83386765zM2.49694118 15.5143676C2.49694118 15.9123382 2.81955882 16.2349559 3.21752941 16.2349559L17.7823676 16.2349559C18.1803382 16.2349559 18.5029559 15.9123382 18.5029559 15.5143676 18.5029559 15.1163971 18.1803382 14.7937794 17.7823676 14.7937794L3.21752941 14.7937794C2.81955882 14.7937794 2.49694118 15.1162941 2.49694118 15.5143676L2.49694118 15.5143676zM17.7824706 16.8966618L3.21752941 16.8966618C2.81955882 16.8966618 2.49694118 17.2192794 2.49694118 17.61725 2.49694118 18.0152206 2.81955882 18.3378382 3.21752941 18.3378382L17.7823676 18.3378382C18.1803382 18.3378382 18.5029559 18.0152206 18.5029559 17.61725 18.5029559 17.2192794 18.1804412 16.8966618 17.7824706 16.8966618L17.7824706 16.8966618zM17.7824706 18.9995441L3.21752941 18.9995441C2.81955882 18.9995441 2.49694118 19.3221618 2.49694118 19.7201324 2.49694118 20.1181029 2.81955882 20.4407206 3.21752941 20.4407206L17.7823676 20.4407206C18.1803382 20.4407206 18.5029559 20.1181029 18.5029559 19.7201324 18.5029559 19.3221618 18.1804412 18.9995441 17.7824706 18.9995441L17.7824706 18.9995441z"/>
  </g>
</svg>
