<svg xmlns="http://www.w3.org/2000/svg" width="15" height="15" viewBox="0 0 15 15">
  <path fill="#FFFFFF" fill-rule="evenodd" d="M0.102941176,10.5882353 L0.0882352941,13.4558824 C0.0882352941,13.6176471 0.147058824,13.7794118 0.264705882,13.8970588 C0.382352941,14.0147059 0.529411765,14.0735294 0.691176471,14.0735294 L3.54411765,14.0588235 C3.70588235,14.0588235 3.85294118,14 3.97058824,13.8823529 L13.8235294,4.02941176 C14.0588235,3.79411765 14.0588235,3.41176471 13.8235294,3.16176471 L11,0.308823529 C10.7647059,0.0735294118 10.3823529,0.0735294118 10.1323529,0.308823529 L8.16176471,2.29411765 L0.279411765,10.1617647 C0.176470588,10.2794118 0.102941176,10.4264706 0.102941176,10.5882353 L0.102941176,10.5882353 Z M10.5735294,1.60294118 L12.5588235,3.58823529 L11.4411765,4.70588235 L9.45588235,2.72058824 L10.5735294,1.60294118 L10.5735294,1.60294118 Z M1.32352941,10.8529412 L8.58823529,3.58823529 L10.5735294,5.57352941 L3.30882353,12.8235294 L1.30882353,12.8382353 L1.32352941,10.8529412 L1.32352941,10.8529412 Z" transform="translate(.667)"/>
</svg>
