<svg xmlns="http://www.w3.org/2000/svg" width="21" height="21" viewBox="0 0 21 21">
  <g fill="#BDC2CC" fill-rule="evenodd">
    <path d="M10.5221053,0 C4.73052632,0 0,4.73052632 0,10.5221053 C0,16.3136842 4.73052632,21 10.5221053,21 C16.3136842,21 21,16.3136842 21,10.5221053 C21,4.73052632 16.3136842,0 10.5221053,0 L10.5221053,0 Z M10.5221053,19.0989474 C5.79157895,19.0989474 1.94526316,15.2526316 1.94526316,10.5221053 C1.94526316,5.79157895 5.79157895,1.94526316 10.5221053,1.94526316 C15.2526316,1.94526316 19.0989474,5.79157895 19.0989474,10.5221053 C19.0989474,15.2526316 15.2526316,19.0989474 10.5221053,19.0989474 L10.5221053,19.0989474 Z"/>
    <path d="M11.9368421 14.28L11.0526316 14.6778947 12.2021053 8.79789474C12.3347368 8.17894737 11.6715789 7.51578947 10.9642105 7.91368421L8.79789474 9.10736842C8.4 9.32842105 8.26736842 9.85894737 8.48842105 10.2568421 8.70947368 10.6547368 9.24 10.7873684 9.63789474 10.5663158L10.1684211 10.3010526 9.06315789 15.9157895C8.97473684 16.4021053 9.37263158 16.9326316 9.90315789 16.9326316 10.0357895 16.9326316 10.1684211 16.8884211 10.2568421 16.8442105L12.6 15.8273684C13.0421053 15.6505263 13.2189474 15.1642105 13.0421053 14.7221053 12.8652632 14.28 12.3789474 14.1031579 11.9368421 14.28L11.9368421 14.28zM11.3621053 6.32210526C12.0252632 6.32210526 12.5557895 5.79157895 12.5557895 5.12842105 12.5557895 4.46526316 12.0252632 3.93473684 11.3621053 3.93473684 10.6989474 3.93473684 10.1684211 4.46526316 10.1684211 5.12842105 10.1684211 5.79157895 10.6989474 6.32210526 11.3621053 6.32210526L11.3621053 6.32210526z"/>
  </g>
</svg>
