<svg xmlns="http://www.w3.org/2000/svg" width="20" height="22" viewBox="0 0 20 22">
  <path fill="#34495E" fill-rule="evenodd" d="M19.9289313,15.2758779 C19.9289313,14.8774046 19.6632824,14.6116794 19.2647328,14.6116794 C18.2020611,14.6116794 17.2722137,13.6818321 17.2722137,12.6191603 L17.2722137,9.96251908 C17.2722137,6.20198473 14.3126718,3.03526718 10.6305344,2.69122137 L10.6305344,0.664198473 C10.6305344,0.265725191 10.3648855,0 9.96633588,0 C9.56778626,0 9.3021374,0.265648855 9.3021374,0.664198473 L9.3021374,2.69122137 C5.62,3.03526718 2.66045802,6.20198473 2.66045802,9.96251908 L2.66045802,12.6191603 C2.66045802,13.6818321 1.73061069,14.6116794 0.667938931,14.6116794 C0.269465649,14.6116794 0.00374045802,14.8773282 0.00374045802,15.2758779 C0.00374045802,16.9083969 2.71358779,17.9125954 6.0210687,18.3456489 C6.22030534,20.3939695 7.85022901,21.9175573 9.96625954,21.9175573 C12.0822901,21.9175573 13.7122137,20.3939695 13.9114504,18.3456489 C17.219084,17.9125954 19.9289313,16.9083969 19.9289313,15.2758779 L19.9289313,15.2758779 Z M9.96641221,20.5892366 C8.69656489,20.5892366 7.62984733,19.6859542 7.3721374,18.490458 C8.2289313,18.5608397 9.10427481,18.5967176 9.96641221,18.5967176 C10.8285496,18.5967176 11.7051908,18.5608397 12.560687,18.490458 C12.3029771,19.6859542 11.2362595,20.5892366 9.96641221,20.5892366 L9.96641221,20.5892366 Z M9.96641221,17.2683969 C5.45007634,17.2683969 2.79343511,16.471374 1.73068702,15.8072519 C3.05900763,15.2759542 3.98885496,14.080458 3.98885496,12.6192366 L3.98885496,9.96259542 C3.98885496,6.64175573 6.64549618,3.9851145 9.96633588,3.9851145 C13.2871756,3.9851145 15.9438168,6.64175573 15.9438168,9.96259542 L15.9438168,12.6192366 C15.9438168,14.0803817 16.8736641,15.4087786 18.2019847,15.8072519 C17.1393893,16.471374 14.4827481,17.2683969 9.96641221,17.2683969 L9.96641221,17.2683969 Z"/>
</svg>
