<?xml version="1.0" encoding="iso-8859-1"?>
<!-- Generator: Adobe Illustrator 18.0.0, SVG Export Plug-In . SVG Version: 6.00 Build 0)  -->
<!DOCTYPE svg PUBLIC "-//W3C//DTD SVG 1.1//EN" "http://www.w3.org/Graphics/SVG/1.1/DTD/svg11.dtd">
<svg version="1.1" id="Capa_1" xmlns="http://www.w3.org/2000/svg" xmlns:xlink="http://www.w3.org/1999/xlink" x="0px" y="0px"
	 viewBox="0 0 408.979 408.979" style="enable-background:new 0 0 408.979 408.979;" xml:space="preserve">
<g>
	<path d="M213.059,132.11h44.14c5.247,0,9.5-4.253,9.5-9.5v-19.981c0-8.583-3.448-16.373-9.025-22.07
		c5.578-5.697,9.026-13.487,9.026-22.071c0-17.408-14.162-31.57-31.57-31.57s-31.57,14.162-31.57,31.57
		c0,8.583,3.448,16.374,9.026,22.07c-5.578,5.697-9.026,13.487-9.026,22.07v19.981C203.559,127.857,207.812,132.11,213.059,132.11z
		 M247.699,113.11h-25.14v-10.481c0-6.931,5.639-12.57,12.57-12.57c6.931,0,12.569,5.639,12.569,12.57V113.11z M235.129,45.919
		c6.932,0,12.57,5.639,12.57,12.57c0,6.931-5.639,12.57-12.57,12.57s-12.57-5.639-12.57-12.57
		C222.559,51.558,228.198,45.919,235.129,45.919z"/>
	<path d="M394.044,187.814c-1.794-2.392-4.609-3.799-7.6-3.799h-50.526l-0.002-9.781c-0.001-5.246-4.254-9.499-9.5-9.499h-25.107
		V9.5c0-5.247-4.253-9.5-9.5-9.5H57.145c-5.247,0-9.5,4.253-9.5,9.5v127.246H22.536c-5.247,0-9.5,4.253-9.5,9.5v253.093
		c-0.001,0.046-0.001,0.093-0.001,0.139c0,1.548,0.37,3.009,1.026,4.3c1.568,3.087,4.774,5.202,8.475,5.202h303.881
		c2.271,0,4.354-0.796,5.988-2.125c1.113-0.902,2.023-2.058,2.641-3.396c0.205-0.443,0.377-0.906,0.513-1.383l60.007-205.902
		C396.402,193.302,395.838,190.206,394.044,187.814z M66.645,19h215.664v145.735H146.823l-7.336-21.55
		c-1.311-3.85-4.926-6.439-8.993-6.439H66.645V19z M319.293,389.978H32.036V155.746h91.656l7.336,21.55
		c1.311,3.85,4.926,6.439,8.993,6.439h176.897l0.001,9.781c0.001,5.246,4.254,9.499,9.5,9.499h47.361L319.293,389.978z"/>
	<path d="M93.441,59.517h86.1c5.247,0,9.5-4.253,9.5-9.5s-4.253-9.5-9.5-9.5h-86.1c-5.247,0-9.5,4.253-9.5,9.5
		S88.194,59.517,93.441,59.517z"/>
	<path d="M93.441,91.593h86.1c5.247,0,9.5-4.253,9.5-9.5s-4.253-9.5-9.5-9.5h-86.1c-5.247,0-9.5,4.253-9.5,9.5
		S88.194,91.593,93.441,91.593z"/>
	<path d="M189.041,114.169c0-5.247-4.253-9.5-9.5-9.5h-86.1c-5.247,0-9.5,4.253-9.5,9.5s4.253,9.5,9.5,9.5h86.1
		C184.788,123.669,189.041,119.416,189.041,114.169z"/>
</g>
<g>
</g>
<g>
</g>
<g>
</g>
<g>
</g>
<g>
</g>
<g>
</g>
<g>
</g>
<g>
</g>
<g>
</g>
<g>
</g>
<g>
</g>
<g>
</g>
<g>
</g>
<g>
</g>
<g>
</g>
</svg>
