<svg xmlns="http://www.w3.org/2000/svg" width="21" height="23" viewBox="0 0 21 23">
  <path fill="#BDC2CC" fill-rule="evenodd" d="M20.1436897,12.1641047 L18.3244091,12.1641047 C17.8640692,12.1641047 17.492585,12.5323933 17.4766897,12.9863834 C17.0988557,16.4978241 14.1271897,19.2314348 10.510998,19.2314348 C6.64081423,19.2314348 3.50716601,16.1009822 3.50716601,12.2371482 C3.50716601,8.40825889 6.66301779,5.29681423 10.4824447,5.24286166 L10.4824447,6.37947628 C10.4824447,6.89700593 10.8507332,7.12875296 11.3015692,6.89700593 L17.1402332,3.90944466 C17.5910692,3.67765613 17.5910692,3.30301779 17.1402332,3.07127075 L11.3015692,0.0899762846 C10.8507332,-0.141770751 10.4824447,0.0899762846 10.4824447,0.604310277 L10.4824447,1.75042885 C4.72632806,1.80442292 0.00527075099,6.48422727 0.00527075099,12.243498 C0.00527075099,18.0376719 4.70727866,22.7365257 10.5110395,22.7365257 C16.0608083,22.7365257 20.6072253,18.4409051 20.9881719,12.9927747 C20.9913261,12.5355889 20.6071838,12.1641047 20.1436897,12.1641047 L20.1436897,12.1641047 Z"/>
</svg>
