<svg xmlns="http://www.w3.org/2000/svg" width="28" height="28" viewBox="0 0 28 28">
  <path fill="#BDC2CC" fill-rule="evenodd" d="M27.6898075,26.4339184 L20.4723393,19.3317847 C22.3623622,17.2783295 23.5236542,14.5626036 23.5236542,11.5742316 C23.5227406,5.18155302 18.257279,0 11.7615073,0 C5.26573573,0 0.00027406199,5.18155302 0.00027406199,11.5742316 C0.00027406199,17.9669103 5.26573573,23.1484633 11.7615073,23.1484633 C14.5681305,23.1484633 17.1423034,22.17769 19.1642871,20.5637847 L26.4097553,27.6939184 C26.7627928,28.0417031 27.3359478,28.0417031 27.6889853,27.6939184 C28.042845,27.3461794 28.042845,26.7817031 27.6898075,26.4339184 L27.6898075,26.4339184 Z M11.7615073,21.3676998 C6.26537684,21.3676998 1.80990538,16.9830277 1.80990538,11.5742316 C1.80990538,6.16543556 6.26537684,1.78076346 11.7615073,1.78076346 C17.2576835,1.78076346 21.7131093,6.16543556 21.7131093,11.5742316 C21.7131093,16.9830277 17.2576835,21.3676998 11.7615073,21.3676998 L11.7615073,21.3676998 Z"/>
</svg>
