<svg xmlns="http://www.w3.org/2000/svg" width="21" height="21" viewBox="0 0 21 21">
  <g fill="#BDC2CC" fill-rule="evenodd">
    <path d="M19.9127349,8.2904405 L18.439666,8.04054489 C18.2862213,7.54513779 18.0889353,7.06726722 17.8478079,6.61131733 L18.7158664,5.39691232 C19.0841336,4.87958455 19.0271399,4.17373904 18.5755741,3.72655741 L17.2691023,2.42008559 C17.0235908,2.17457411 16.6991649,2.03866597 16.3528184,2.03866597 C16.0810021,2.03866597 15.8223382,2.12196451 15.6031315,2.27979332 L14.3843424,3.14785177 C13.9108559,2.89795616 13.4154489,2.69190188 12.9025052,2.5384572 L12.6569937,1.08292484 C12.5517745,0.455993737 12.0125261,4.38413361e-05 11.3768267,4.38413361e-05 L9.53110647,4.38413361e-05 C8.8954071,4.38413361e-05 8.35615866,0.455993737 8.25093946,1.08292484 L7.99665971,2.57353027 C7.50563674,2.72697495 7.02776618,2.92864509 6.57181628,3.17415658 L5.36617954,2.30609812 C5.14697286,2.14826931 4.88392484,2.06497077 4.61210856,2.06497077 C4.265762,2.06497077 3.93695198,2.20087891 3.69582463,2.4463904 L2.38496868,3.75286221 C1.93778706,4.20004384 1.87640919,4.90588935 2.24467641,5.42321712 L3.12150313,6.65515866 C2.88037578,7.11549269 2.6874739,7.59336326 2.53841336,8.08877035 L1.082881,8.33428184 C0.455949896,8.43950104 0,8.97874948 0,9.61444885 L0,11.4601691 C0,12.0958685 0.455949896,12.6351169 1.082881,12.7403361 L2.57348643,12.9946159 C2.72693111,13.4856388 2.92860125,13.9635094 3.17411273,14.4194593 L2.31043841,15.6207119 C1.94217119,16.1380397 1.99916493,16.8438852 2.45073069,17.2910668 L3.75720251,18.5975386 C4.00271399,18.8430501 4.32713987,18.9789582 4.67348643,18.9789582 C4.94530271,18.9789582 5.2039666,18.8956597 5.42317328,18.7378309 L6.65511482,17.8610042 C7.09791232,18.0933633 7.56263048,18.281881 8.04050104,18.4309415 L8.28601253,19.9040104 C8.39123173,20.5309415 8.93048017,20.9868914 9.56617954,20.9868914 L11.4162839,20.9868914 C12.0519833,20.9868914 12.5912317,20.5309415 12.6964509,19.9040104 L12.9463466,18.4309415 C13.4417537,18.2774969 13.9196242,18.0802109 14.3755741,17.8390835 L15.5899791,18.707142 C15.8091858,18.8649708 16.0722338,18.9482693 16.3440501,18.9482693 L16.3440501,18.9482693 C16.6903967,18.9482693 17.0148225,18.8123612 17.260334,18.5668497 L18.5668058,17.2603779 C19.0139875,16.8131962 19.0753653,16.1073507 18.7070981,15.590023 L17.8390397,14.3712338 C18.080167,13.9108998 18.2818372,13.4330292 18.4308977,12.9420063 L19.9039666,12.6964948 C20.5308977,12.5912756 20.9868476,12.0520271 20.9868476,11.4163278 L20.9868476,9.57060752 C20.9956159,8.93490814 20.539666,8.39565971 19.9127349,8.2904405 L19.9127349,8.2904405 Z M19.8118998,11.4163278 C19.8118998,11.4733215 19.7724426,11.521547 19.7154489,11.5303152 L17.8741127,11.8372046 C17.6417537,11.8766618 17.45762,12.047643 17.4006263,12.2712338 C17.2340292,12.9157015 16.9797495,13.5338643 16.6377871,14.1081858 C16.5194154,14.3098559 16.5281837,14.5597516 16.6640919,14.7526534 L17.7469729,16.2783319 C17.7776618,16.3221733 17.7732777,16.3879353 17.7338205,16.4273925 L16.4273486,17.7338643 C16.3966597,17.7645532 16.3659708,17.7689374 16.3440501,17.7689374 C16.3177453,17.7689374 16.2958246,17.7601691 16.2782881,17.7470167 L14.7569937,16.6641357 C14.568476,16.5282276 14.3141962,16.5194593 14.1125261,16.6378309 C13.5382046,16.9797933 12.9200418,17.2340731 12.2755741,17.4006701 C12.0475992,17.4576639 11.876618,17.6461816 11.8415449,17.8741566 L11.5302714,19.7154927 C11.5215031,19.7724864 11.4732777,19.8119436 11.4162839,19.8119436 L9.57056367,19.8119436 C9.51356994,19.8119436 9.46534447,19.7724864 9.4565762,19.7154927 L9.14968685,17.8741566 C9.11022965,17.6417975 8.93924843,17.4576639 8.71565762,17.4006701 C8.08872651,17.2384572 7.48371608,16.9885616 6.91816284,16.6641357 C6.82609603,16.6115261 6.72087683,16.5852213 6.62004175,16.5852213 C6.50167015,16.5852213 6.37891441,16.6202944 6.27807933,16.6948246 L4.74363257,17.7864739 C4.7217119,17.7996263 4.69979123,17.8083946 4.67787056,17.8083946 C4.66033403,17.8083946 4.62526096,17.8040104 4.59457203,17.7733215 L3.28810021,16.4668497 C3.24864301,16.4273925 3.24425887,16.3660146 3.27494781,16.3177891 L4.35344468,14.805263 C4.48935282,14.6123612 4.49812109,14.3580814 4.37974948,14.1564113 C4.03778706,13.5864739 3.77473904,12.9683111 3.60814196,12.3238434 C3.54676409,12.1002526 3.36263048,11.9292714 3.13465553,11.8898142 L1.28016701,11.5741566 C1.22317328,11.5653883 1.18371608,11.5171628 1.18371608,11.4601691 L1.18371608,9.61444885 C1.18371608,9.55745511 1.22317328,9.50922965 1.28016701,9.50046138 L3.10835073,9.19357203 C3.34070981,9.15411482 3.52922756,8.98313361 3.58622129,8.75515866 C3.74843424,8.11069102 3.99832985,7.48814405 4.33590814,6.91382255 C4.45427975,6.7121524 4.44112735,6.46225678 4.30521921,6.27373904 L3.21356994,4.73929228 C3.182881,4.69545094 3.18726514,4.62968894 3.22672234,4.59023173 L4.53319415,3.28375992 C4.56388309,3.25307098 4.59457203,3.24868685 4.61649269,3.24868685 C4.64279749,3.24868685 4.66471816,3.25745511 4.6822547,3.27060752 L6.19478079,4.34910438 C6.38768267,4.48501253 6.64196242,4.49378079 6.84363257,4.37540919 C7.41356994,4.03344676 8.03173278,3.77039875 8.67620042,3.60380167 C8.89979123,3.5424238 9.07077244,3.35829019 9.11022965,3.13031524 L9.42588727,1.27582672 C9.43465553,1.21883299 9.482881,1.17937578 9.53987474,1.17937578 L11.385595,1.17937578 C11.4425887,1.17937578 11.4908142,1.21883299 11.4995825,1.27582672 L11.8064718,3.10401044 C11.845929,3.33636952 12.0169102,3.52488727 12.2448852,3.581881 C12.9068894,3.74847808 13.5382046,4.00714196 14.1256785,4.35348852 C14.3273486,4.47186013 14.5772443,4.46309186 14.7701461,4.32718372 L16.2826722,3.23991858 C16.3045929,3.22676618 16.3265136,3.21799791 16.3484342,3.21799791 C16.3659708,3.21799791 16.4010438,3.22238205 16.4317328,3.25307098 L17.7382046,4.5595428 C17.7776618,4.599 17.7820459,4.66037787 17.751357,4.70860334 L16.668476,6.2298977 C16.5325678,6.41841545 16.5237996,6.6726952 16.6421712,6.87436534 C16.9841336,7.44868685 17.2384134,8.06684969 17.4050104,8.71131733 C17.4620042,8.93929228 17.6505219,9.11027349 17.8784969,9.14534656 L19.719833,9.45662004 C19.7768267,9.46538831 19.8162839,9.51361378 19.8162839,9.57060752 L19.8162839,11.4163278 L19.8118998,11.4163278 L19.8118998,11.4163278 Z"/>
    <path d="M10.4956159,5.96246555 C7.99665971,5.96246555 5.96680585,7.99231942 5.96680585,10.4912756 C5.96680585,12.9902317 7.99665971,15.0200856 10.4956159,15.0200856 C12.994572,15.0200856 15.0244259,12.9902317 15.0244259,10.4912756 C15.0244259,7.99231942 12.994572,5.96246555 10.4956159,5.96246555 L10.4956159,5.96246555 Z M10.4956159,13.8363695 C8.64989562,13.8363695 7.15052192,12.3369958 7.15052192,10.4912756 C7.15052192,8.64555532 8.64989562,7.14618163 10.4956159,7.14618163 C12.3413361,7.14618163 13.8407098,8.64555532 13.8407098,10.4912756 C13.8407098,12.3369958 12.3413361,13.8363695 10.4956159,13.8363695 L10.4956159,13.8363695 Z"/>
  </g>
</svg>
