<svg xmlns="http://www.w3.org/2000/svg" width="16" height="16" viewBox="0 0 16 16">
  <g fill="#34495E" fill-rule="evenodd">
    <path d="M3.60816327,1.73714286 C2.57306122,1.73714286 1.73714286,2.57632653 1.73714286,3.60816327 C1.73714286,4.64326531 2.57632653,5.47918367 3.60816327,5.47918367 C4.64326531,5.47918367 5.47918367,4.64 5.47918367,3.60816327 C5.48244898,2.57306122 4.64326531,1.73714286 3.60816327,1.73714286 L3.60816327,1.73714286 Z M3.60816327,4.81632653 C2.94204082,4.81632653 2.4,4.27428571 2.4,3.60816327 C2.4,2.94204082 2.94204082,2.4 3.60816327,2.4 C4.27428571,2.4 4.81632653,2.94204082 4.81632653,3.60816327 C4.81632653,4.27428571 4.27755102,4.81632653 3.60816327,4.81632653 L3.60816327,4.81632653 Z"/>
    <path d="M7.6244898,0.613877551 C7.28489796,0.238367347 6.80816327,0.0359183673 6.2955102,0.0359183673 L2.79183673,1.08756541e-16 C2.04408163,1.08756541e-16 1.32897959,0.271020408 0.816326531,0.816326531 C0.271020408,1.32897959 -8.8817842e-16,2.04408163 -8.8817842e-16,2.79183673 L0.0326530612,6.29877551 C0.0653061224,6.7755102 0.238367347,7.2522449 0.610612245,7.6277551 L8.98612245,16 L16,8.98612245 L7.6244898,0.613877551 L7.6244898,0.613877551 Z M8.95346939,15.0465306 L1.05469388,7.1477551 C0.816326531,6.90938776 0.679183673,6.60244898 0.679183673,6.26285714 L0.646530612,2.79183673 C0.646530612,2.24653061 0.884897959,1.70122449 1.26040816,1.29306122 C1.66857143,0.884897959 2.21387755,0.646530612 2.79183673,0.646530612 L6.26285714,0.679183673 C6.60244898,0.679183673 6.90938776,0.816326531 7.1477551,1.05469388 L15.0465306,8.95346939 L8.95346939,15.0465306 L8.95346939,15.0465306 Z"/>
  </g>
</svg>
