<svg xmlns="http://www.w3.org/2000/svg" width="12" height="15" viewBox="0 0 12 15">
  <g fill="#FFFFFF" fill-rule="evenodd">
    <path d="M10.826129,1.76456129 L8.82524516,1.76456129 L8.82524516,0.464341935 C8.82524516,0.202625806 8.61414194,0 8.35244516,0 C8.32705161,0 8.31011613,0.00847741935 8.30185161,0.0169354839 C8.29337419,0.00847741935 8.27643871,0 8.26798065,0 L3.56539355,0 L3.53171613,0 L3.49784516,0 C3.23614839,0 3.03352258,0.202625806 3.03352258,0.464341935 L3.03352258,1.76458065 L1.02418065,1.76458065 C0.449980645,1.76458065 0.00257419355,2.2119871 0.00257419355,2.7861871 L0.00257419355,3.52916129 L0.00257419355,4.45782581 L0.889083871,4.45782581 L0.889083871,13.9726645 C0.889083871,14.5468839 1.32803226,14.9858129 1.90223226,14.9858129 L9.94809677,14.9858129 C10.5222968,14.9858129 10.9696839,14.5468839 10.9696839,13.9726645 L10.9696839,4.45782581 L11.8477355,4.45782581 L11.8477355,3.52916129 L11.8477355,2.7861871 C11.8477355,2.2119871 11.4001548,1.76456129 10.826129,1.76456129 L10.826129,1.76456129 Z M3.9621871,0.928664516 L7.88812258,0.928664516 L7.88812258,1.76456129 L3.9621871,1.76456129 L3.9621871,0.928664516 L3.9621871,0.928664516 Z M10.0325613,13.9726839 C10.0325613,14.031929 10.0071677,14.057129 9.94809677,14.057129 L1.90223226,14.057129 C1.84316129,14.057129 1.81776774,14.0319097 1.81776774,13.9726839 L1.81776774,4.45780645 L10.0325613,4.45780645 L10.0325613,13.9726839 L10.0325613,13.9726839 Z M10.9106129,3.52914194 L0.939696774,3.52914194 L0.939696774,2.78616774 C0.939696774,2.72707742 0.965090323,2.69322581 1.02416129,2.69322581 L10.826129,2.69322581 C10.8852194,2.69322581 10.9106129,2.72707742 10.9106129,2.78616774 L10.9106129,3.52914194 L10.9106129,3.52914194 Z"/>
    <rect width=".937" height="7.683" x="7.626" y="5.547"/>
    <rect width=".937" height="7.683" x="5.465" y="5.547"/>
    <rect width=".937" height="7.683" x="3.304" y="5.547"/>
  </g>
</svg>
