<?xml version="1.0" encoding="iso-8859-1"?>
<!-- Generator: Adobe Illustrator 19.0.0, SVG Export Plug-In . SVG Version: 6.00 Build 0)  -->
<svg xmlns="http://www.w3.org/2000/svg" xmlns:xlink="http://www.w3.org/1999/xlink" version="1.1" id="Capa_1" x="0px" y="0px" viewBox="0 0 60 60" style="enable-background:new 0 0 60 60;" xml:space="preserve" width="512px" height="512px">
<g>
	<g>
		<path d="M5,2h31v8c0,0.6,0.4,1,1,1h8v5h2v-6l0,0c0-0.1,0-0.2-0.1-0.3V9.6c-0.1-0.1-0.1-0.2-0.2-0.3l-9-9c-0.1-0.1-0.2-0.1-0.3-0.2    h-0.1C37.2,0.1,37.1,0,37,0l0,0H4C3.4,0,3,0.4,3,1v11h2V2z M43.6,9H38V3.4L43.6,9z" fill="#e0e0e0"/>
		<path d="M56,18H21v-3c0-0.6-0.4-1-1-1H4c-0.6,0-1,0.4-1,1v45h2V16h14v3v3H9v2h11h35v36h2V23v-4C57,18.4,56.6,18,56,18z M21,22v-2    h34v2H21z" fill="#e0e0e0"/>
		<rect x="7" y="4" width="2" height="2" fill="#e0e0e0"/>
		<rect x="11" y="4" width="2" height="2" fill="#e0e0e0"/>
		<rect x="15" y="4" width="2" height="2" fill="#e0e0e0"/>
		<rect x="7" y="8" width="2" height="2" fill="#e0e0e0"/>
		<rect x="11" y="8" width="2" height="2" fill="#e0e0e0"/>
		<rect x="15" y="8" width="2" height="2" fill="#e0e0e0"/>
		<path d="M29.3,32.3l-3,3l1.4,1.4l1.3-1.3V60h2V35.4l1.3,1.3l1.4-1.4l-3-3C30.3,31.9,29.7,31.9,29.3,32.3z" fill="#e0e0e0"/>
		<rect x="8" y="58" width="2" height="2" fill="#e0e0e0"/>
		<rect x="12" y="58" width="2" height="2" fill="#e0e0e0"/>
		<rect x="16" y="58" width="2" height="2" fill="#e0e0e0"/>
		<rect x="20" y="58" width="2" height="2" fill="#e0e0e0"/>
		<rect x="24" y="58" width="2" height="2" fill="#e0e0e0"/>
		<rect x="34" y="58" width="2" height="2" fill="#e0e0e0"/>
		<rect x="38" y="58" width="2" height="2" fill="#e0e0e0"/>
		<rect x="42" y="58" width="2" height="2" fill="#e0e0e0"/>
		<rect x="46" y="58" width="2" height="2" fill="#e0e0e0"/>
		<rect x="50" y="58" width="2" height="2" fill="#e0e0e0"/>
	</g>
</g>
<g>
</g>
<g>
</g>
<g>
</g>
<g>
</g>
<g>
</g>
<g>
</g>
<g>
</g>
<g>
</g>
<g>
</g>
<g>
</g>
<g>
</g>
<g>
</g>
<g>
</g>
<g>
</g>
<g>
</g>
</svg>
