<svg xmlns="http://www.w3.org/2000/svg" width="20" height="20" viewBox="0 0 20 20">
  <path fill="#34495E" fill-rule="evenodd" d="M20,10.0011765 C20,4.49035948 15.5096405,0 9.99882353,0 C4.48800654,0 0,4.49035948 0,10.0011765 C0,13.0365033 1.37712418,15.7670915 3.51954248,17.602451 C3.54552288,17.6284314 3.57150327,17.6544118 3.62111111,17.6780392 C5.35490196,19.1331046 7.57529412,20 10.0248039,20 C12.4223529,20 14.6427451,19.1331046 16.3765359,17.73 C16.4781046,17.7040196 16.5560458,17.6284314 16.6056536,17.5504902 C18.6748693,15.6891503 20,13.0105229 20,10.0011765 L20,10.0011765 Z M0.918856209,10.0011765 C0.918856209,5.00058824 5.00058824,0.918856209 10.0011765,0.918856209 C15.0017647,0.918856209 19.0834967,5.00058824 19.0834967,10.0011765 C19.0834967,12.4506863 18.1150327,14.6686928 16.5324183,16.3033007 C16.2773203,15.1033333 15.5119935,13.0624837 13.1640523,11.7373529 C13.7002614,11.0735948 14.0049673,10.2066993 14.0049673,9.28784314 C14.0049673,7.09343137 12.2192157,5.30767974 10.0248039,5.30767974 C7.83039216,5.30767974 6.04464052,7.09343137 6.04464052,9.28784314 C6.04464052,10.2066993 6.3753268,11.0476144 6.88555556,11.7373529 C4.51637255,13.0624837 3.75104575,15.103366 3.52189542,16.3033007 C1.91330065,14.6947059 0.918856209,12.4506863 0.918856209,10.0011765 L0.918856209,10.0011765 Z M6.93986928,9.31143791 C6.93986928,7.6272549 8.31699346,6.25013072 10.0011765,6.25013072 C11.6853595,6.25013072 13.0624837,7.6272549 13.0624837,9.31143791 C13.0624837,10.9956209 11.6853595,12.3727451 10.0011765,12.3727451 C8.31699346,12.3727451 6.93986928,10.9956209 6.93986928,9.31143791 L6.93986928,9.31143791 Z M4.33683007,17.0922549 C4.38879085,16.3529085 4.79506536,13.8514379 7.55166667,12.4483333 C8.24140523,12.9845425 9.08232026,13.2892484 10.0011765,13.2892484 C10.9200327,13.2892484 11.7869281,12.9585621 12.4766667,12.4223529 C15.2072549,13.8254575 15.6395425,16.2749673 15.7174837,17.0662745 C14.1608497,18.3158497 12.1719608,19.0811438 10.0295098,19.0811438 C7.85875817,19.0834967 5.89346405,18.3441503 4.33683007,17.0922549 L4.33683007,17.0922549 Z"/>
</svg>
